# xmcd
#
# Track frame offsets: 
#        150
#        19863
#        40548
#        58389
#        82050
#        97899
#        119129
#        152799
#        175757
#        201687
#        230904
#        249723
#        264183
#        291003
#        304296
#
# Disc length: 4293 seconds
#
# Revision: 1
# Processed by: cddbd v1.5.2PL0 Copyright (c) Steve Scherf et al.
# Submitted via: ExactAudioCopy v1.0b1
#
DISCID=dd10c30f
DTITLE=supperclub - beauty cd one
DYEAR=2008
DGENRE=New Age
TTITLE0=Winona - the white room
TTITLE1=Donso - waati
TTITLE2=David lowe's dreamcatcher - inside
TTITLE3=Jong - conversation celeste
TTITLE4=Pan electric - sheshamani shuffle
TTITLE5=Tripswitch - tachyon
TTITLE6=Francesco tristano - the melody (c2 remix)
TTITLE7=Lanoiraude feat. fania - mbife
TTITLE8=Octogen - sunset over tao
TTITLE9=Bardo state - seneca (pathaan's dirty dancer mix)
TTITLE10=Vieux farka touré
TTITLE11=Nacho sotomayor - wonderful moments
TTITLE12=Ganga - 1000 years old
TTITLE13=Al-pha-x - the oddity interval (mad mix)
TTITLE14=Blue states - allies
EXTD=YEAR: 2008
EXTT0=
EXTT1=
EXTT2=
EXTT3=
EXTT4=
EXTT5=
EXTT6=
EXTT7=
EXTT8=
EXTT9=
EXTT10=
EXTT11=
EXTT12=
EXTT13=
EXTT14=
PLAYORDER=
